<svg width="51" height="50" viewBox="0 0 51 50" fill="none" xmlns="http://www.w3.org/2000/svg">
<circle cx="25.5" cy="25" r="24" fill="#C2DBFF" stroke="#2A7FFF" stroke-width="2"/>
<path d="M11.7734 32L16.6953 17.9082H20.1621L25.0742 32H21.9785L20.9141 28.582H15.9336L14.8691 32H11.7734ZM18.3945 20.6426L16.6172 26.375H20.2305L18.4531 20.6426H18.3945ZM32.1836 32.2441C27.9746 32.2441 25.3965 29.5 25.3965 24.9102V24.9004C25.3965 20.3887 27.9844 17.6641 32.1152 17.6641C35.5039 17.6641 37.8086 19.6367 38.2773 22.2832L38.3066 22.4199H35.3477L35.3086 22.3223C34.8398 20.9551 33.7168 20.1641 32.125 20.1641C29.8008 20.1641 28.4043 21.8828 28.4043 24.8711V24.8809C28.4043 27.9375 29.8887 29.7441 32.2324 29.7441C34.1562 29.7441 35.4746 28.6016 35.5527 26.8633L35.5625 26.6582H32.3398V24.4609H38.4336V26.082C38.4336 29.9199 36.1094 32.2441 32.1836 32.2441Z" fill="#2A7FFF"/>
</svg>
