<svg width="51" height="50" viewBox="0 0 51 50" fill="none" xmlns="http://www.w3.org/2000/svg">
<circle cx="25.5" cy="25" r="24" fill="#C2DBFF" stroke="#2A7FFF" stroke-width="2"/>
<path d="M18.5293 32.2441C14.3398 32.2441 11.7324 29.4414 11.7324 24.959V24.9395C11.7324 20.457 14.3594 17.6641 18.5293 17.6641C22.709 17.6641 25.3262 20.4668 25.3262 24.9395V24.959C25.3262 29.4414 22.7188 32.2441 18.5293 32.2441ZM18.5293 29.7441C20.873 29.7441 22.3184 27.8789 22.3184 24.959V24.9395C22.3184 22 20.8438 20.1641 18.5293 20.1641C16.2246 20.1641 14.7402 21.9902 14.7402 24.9395V24.959C14.7402 27.9082 16.2148 29.7441 18.5293 29.7441ZM25.7461 32L30.668 17.9082H34.1348L39.0469 32H35.9512L34.8867 28.582H29.9062L28.8418 32H25.7461ZM32.3672 20.6426L30.5898 26.375H34.2031L32.4258 20.6426H32.3672Z" fill="#2A7FFF"/>
</svg>
