<svg width="51" height="50" viewBox="0 0 51 50" fill="none" xmlns="http://www.w3.org/2000/svg">
<circle cx="25.5" cy="25" r="24" fill="#C2DBFF" stroke="#2A7FFF" stroke-width="2"/>
<path d="M17.8184 32.2441C14.4688 32.2441 12.3105 30.7109 12.1445 28.1133L12.1348 27.957H14.918L14.9375 28.0645C15.123 29.1582 16.2852 29.8418 17.8965 29.8418C19.5273 29.8418 20.5527 29.1289 20.5527 28.0547V28.0449C20.5527 27.0879 19.8594 26.6094 18.1113 26.248L16.627 25.9551C13.8438 25.3984 12.4375 24.0703 12.4375 21.9512V21.9414C12.4375 19.3633 14.6836 17.6641 17.8086 17.6641C21.0703 17.6641 23.0723 19.2949 23.209 21.7656L23.2188 21.9512H20.4355L20.4258 21.834C20.2793 20.7305 19.2637 20.0566 17.8086 20.0566C16.2949 20.0664 15.3867 20.7598 15.3867 21.7656V21.7754C15.3867 22.6641 16.1094 23.1816 17.7305 23.5039L19.2246 23.8066C22.1738 24.3926 23.502 25.5938 23.502 27.8105V27.8203C23.502 30.5254 21.373 32.2441 17.8184 32.2441ZM24.1172 32L29.0391 17.9082H32.5059L37.418 32H34.3223L33.2578 28.582H28.2773L27.2129 32H24.1172ZM30.7383 20.6426L28.9609 26.375H32.5742L30.7969 20.6426H30.7383Z" fill="#2A7FFF"/>
</svg>
